<svg width="25" height="25" viewBox="0 0 25 25" fill="none" xmlns="http://www.w3.org/2000/svg">
<path d="M11.1498 2.00019C10.9498 2.75019 10.4998 2.95019 9.2998 2.85019C7.8498 2.75019 7.7498 2.85019 7.8498 4.30019C7.9498 5.50019 7.7498 5.95019 6.9998 6.15019C5.6498 6.50019 5.6498 8.50019 6.9998 8.85019C7.7498 9.05019 7.9498 9.50019 7.8498 10.7002C7.7498 12.1502 7.8498 12.2502 9.2998 12.1502C10.4998 12.0502 10.9498 12.2502 11.1498 13.0002C11.4998 14.3502 13.4998 14.3502 13.8498 13.0002C14.0498 12.2502 14.4998 12.0502 15.6998 12.1502C17.1498 12.2502 17.2498 12.1502 17.1498 10.7002C17.0498 9.50019 17.2498 9.05019 17.9998 8.85019C19.3498 8.50019 19.3498 6.50019 17.9998 6.15019C17.2498 5.95019 17.0498 5.50019 17.1498 4.30019C17.2498 2.85019 17.1498 2.75019 15.6998 2.85019C14.4998 2.95019 14.0498 2.75019 13.8498 2.00019C13.6998 1.40019 13.1498 1.00019 12.4998 1.00019C11.8498 1.00019 11.2998 1.40019 11.1498 2.00019ZM13.1498 3.05019C13.3998 3.95019 13.6998 4.10019 14.9498 3.85019C16.3998 3.55019 16.4498 3.60019 16.1498 5.05019C15.8998 6.30019 16.0498 6.60019 16.9498 6.85019C18.1498 7.15019 18.3998 8.00019 17.2498 8.00019C16.3498 8.00019 15.2998 9.80019 15.9998 10.2502C17.0498 10.9002 16.4498 11.4502 14.9498 11.1502C13.6998 10.9002 13.3998 11.0502 13.1498 11.9502C12.7998 13.3002 12.1998 13.3002 11.8498 11.9502C11.5998 11.0502 11.2998 10.9002 10.0498 11.1502C8.5998 11.4502 8.5498 11.4002 8.8498 9.95019C9.0998 8.70019 8.9498 8.40019 8.0498 8.15019C6.6998 7.80019 6.6998 7.20019 8.0498 6.85019C8.9498 6.60019 9.0998 6.30019 8.8498 5.05019C8.5498 3.60019 8.5998 3.55019 10.0498 3.85019C11.2998 4.10019 11.5998 3.95019 11.8498 3.05019C11.9998 2.50019 12.2998 2.00019 12.4998 2.00019C12.6998 2.00019 12.9998 2.50019 13.1498 3.05019Z" fill="white"/>
<path d="M10.8002 5.8C9.25019 7.3 10.3502 10 12.5002 10C13.7002 10 15.0002 8.7 15.0002 7.55C15.0002 6.45 13.5002 5 12.3502 5C11.9502 5 11.2002 5.35 10.8002 5.8ZM13.5002 6.75C14.3502 7.75 13.7502 9 12.5002 9C11.3502 9 10.7502 7.9 11.2002 6.75C11.5502 5.8 12.7002 5.8 13.5002 6.75Z" fill="white"/>
<path d="M3.35 15.1C2.05 15.65 1 16.35 1 16.6C1 17.1 2.55 16.75 4.6 15.7C6.5 14.7 8.3 14.85 9.9 16C10.65 16.55 12.25 17.2 13.5 17.4C16.8 17.95 15.8 18.75 11.9 18.7C8.5 18.7 7.5 19.1 9.65 19.7C10.25 19.85 11.9 20 13.25 20C15.35 20 16.25 19.65 18.75 18C21.7 16.05 23 15.55 23 16.45C23 17 13.85 23 13 23C12.7 23 11 22.3 9.2 21.45C6.15 19.95 5.95 19.95 4.75 20.7C3.05 21.8 3.15 22.7 4.85 21.8C6.1 21.15 6.45 21.2 9.1 22.55C10.7 23.35 12.4 24 12.85 24C14.25 24 23.4 18.05 23.8 16.9C24.2 15.6 23.55 15.2 19.7 14.5C16.8 13.95 16.4 13.95 14.85 14.95C12.7 16.25 11.75 16.25 10.15 15C8.5 13.75 6.4 13.75 3.35 15.1ZM17 15.75C16.65 16.15 15.9 16.5 15.3 16.5C14.3 16.45 14.3 16.4 15.5 15.75C17.15 14.8 17.8 14.8 17 15.75ZM18.8 16.75C17.95 17.4 17.1 17.8 16.85 17.65C16.6 17.5 17.05 16.95 17.85 16.45C19.85 15.1 20.5 15.3 18.8 16.75Z" fill="white"/>
</svg>
