<svg width="25" height="25" viewBox="0 0 25 25" fill="none" xmlns="http://www.w3.org/2000/svg">
<path d="M8.7 3.2C6.75 4.1 4.55 5.4 3.85 6C2.6 7.1 2.5 7.45 2.5 11.55C2.5 15.8 2.55 16 4.3 18.3C5.3 19.6 6.3 21.25 6.5 21.95C6.8 23.1 7.05 23.25 9.3 23.25H11.75L11.9 20.85C12 19.55 12.25 18.5 12.5 18.5C12.75 18.5 13 19.55 13.1 20.85L13.25 23.25H15.7C17.95 23.25 18.2 23.1 18.5 21.95C18.7 21.25 19.7 19.6 20.7 18.3C22.45 16 22.5 15.8 22.5 11.55C22.5 6.5 22.25 6.15 17.15 3.6C12.8 1.4 12.6 1.4 8.7 3.2ZM15.65 4C17.2 4.7 18.5 5.35 18.5 5.5C18.5 5.65 17.15 6.5 15.5 7.35L12.5 8.95L9.5 7.35C7.85 6.5 6.5 5.65 6.5 5.5C6.55 5.2 12.15 2.55 12.55 2.65C12.7 2.7 14.1 3.3 15.65 4ZM9.15 8.25L12 9.7V13.35C12 17.5 11.6 17.65 9.05 14.45C8.15 13.4 7 12.5 6.5 12.5C5.6 12.5 5.5 12.15 5.5 9.45C5.5 7.8 5.65 6.5 5.9 6.6C6.1 6.7 7.55 7.45 9.15 8.25ZM19.5 9.5C19.5 12.15 19.4 12.5 18.5 12.5C18 12.5 16.85 13.4 15.95 14.45C13.4 17.65 13 17.5 13 13.35V9.75L15.9 8.2C17.45 7.35 18.9 6.6 19.15 6.55C19.35 6.55 19.5 7.85 19.5 9.5ZM5.95 16.85C7.1 18.4 8 18.95 8 18.15C8 18 7.45 17.1 6.75 16.2C6.05 15.3 5.5 14.35 5.5 14.05C5.5 13.05 6.8 13.5 8.1 14.85C10.3 17.25 11 18.65 11 20.6C11 22.45 10.95 22.5 9.25 22.5C7.9 22.5 7.5 22.3 7.5 21.6C7.5 21.15 6.6 19.6 5.5 18.25C3.55 15.8 3.5 15.65 3.5 11.7C3.5 6.3 4.2 5.85 4.5 11.1C4.7 14.5 4.95 15.55 5.95 16.85ZM21.5 11.65C21.5 15.65 21.45 15.8 19.5 18.25C18.4 19.6 17.5 21.15 17.5 21.6C17.5 22.3 17.1 22.5 15.75 22.5C14.05 22.5 14 22.45 14 20.6C14 17.7 17.85 12.65 19.1 13.9C19.45 14.25 19.25 14.9 18.3 16.15C16.95 17.95 16.7 18.5 17.45 18.5C17.65 18.5 18.45 17.65 19.2 16.6C20.35 14.95 20.5 14.2 20.5 10.8C20.5 8.35 20.7 7.05 21 7.25C21.3 7.4 21.5 9.4 21.5 11.65Z" fill="white"/>
</svg>
