<svg width="21" height="25" viewBox="0 0 21 25" fill="none" xmlns="http://www.w3.org/2000/svg">
<path d="M10.2814 8.89038C8.1819 8.89038 6.48387 10.4763 6.48387 12.4372C6.48387 14.3981 8.1819 15.9841 10.2814 15.9841C12.381 15.9841 14.079 14.3981 14.079 12.4372C14.079 10.4763 12.381 8.89038 10.2814 8.89038ZM11.373 13.8356C11.2057 14.0231 10.9883 14.1481 10.7373 14.2145C10.6244 14.238 10.5784 14.2966 10.5826 14.402C10.5868 14.5075 10.5826 14.613 10.5826 14.7145C10.5826 14.8083 10.5324 14.8591 10.4362 14.8591C10.3149 14.863 10.1936 14.863 10.0723 14.8591C9.96777 14.8591 9.91758 14.8044 9.9134 14.7067C9.9134 14.6286 9.9134 14.5505 9.9134 14.4763C9.9134 14.3044 9.90921 14.3005 9.73355 14.277C9.50771 14.2458 9.29441 14.195 9.08529 14.1013C8.92636 14.031 8.90963 13.9958 8.95564 13.8356C8.9891 13.7185 9.02674 13.6013 9.06438 13.488C9.1062 13.3552 9.14803 13.3396 9.27768 13.4021C9.50353 13.5075 9.74192 13.57 9.99704 13.6013C10.1602 13.6208 10.3149 13.6052 10.4655 13.5427C10.7457 13.4294 10.7917 13.1286 10.5533 12.945C10.4738 12.8825 10.386 12.8357 10.2856 12.7966C10.0389 12.695 9.78793 12.6169 9.5579 12.488C9.18567 12.281 8.94309 11.9919 8.97237 11.5622C9.00583 11.0818 9.29441 10.781 9.76701 10.6208C9.96358 10.5544 9.96358 10.5583 9.96358 10.3669C9.96358 10.3005 9.96358 10.238 9.96358 10.1716C9.96777 10.0271 9.99704 10.0037 10.1434 9.99584C10.1936 9.99584 10.2354 9.99584 10.2856 9.99584C10.616 9.99584 10.616 9.99584 10.616 10.3044C10.616 10.5193 10.616 10.5193 10.8461 10.5544C11.0217 10.5818 11.189 10.6325 11.3563 10.699C11.4441 10.7341 11.4818 10.7966 11.4525 10.8825C11.4149 11.0154 11.3772 11.1482 11.327 11.2771C11.2852 11.3982 11.2434 11.4216 11.1137 11.3591C10.8628 11.2458 10.5951 11.195 10.3065 11.2107C10.2354 11.2146 10.1602 11.2263 10.0932 11.2497C9.85484 11.3474 9.80884 11.5974 10.018 11.7575C10.1225 11.8357 10.2438 11.8903 10.3693 11.9411C10.5826 12.0232 10.8001 12.1052 11.005 12.2146C11.6574 12.5505 11.8331 13.3122 11.373 13.8356Z" fill="white"/>
<path d="M16.8561 12.6172C16.8561 12.0742 16.3835 11.6367 15.8021 11.6367C15.225 11.6367 14.7524 12.0742 14.7524 12.6172C14.7524 13.1601 15.225 13.6015 15.8021 13.6015C16.3835 13.6015 16.8561 13.1601 16.8561 12.6172Z" fill="white"/>
<path d="M5.80215 12.6172C5.80215 12.0742 5.33372 11.6367 4.75238 11.6367C4.17103 11.6367 3.69843 12.0742 3.69843 12.6172C3.69843 13.1601 4.17103 13.6015 4.75238 13.6015C5.33372 13.6015 5.80215 13.1601 5.80215 12.6172Z" fill="white"/>
<path d="M18.4286 6.64844H1.89165C0.938074 6.64844 0.160156 7.3789 0.160156 8.26561V16.5976C0.160156 17.4882 0.938074 18.2147 1.89165 18.2147H18.4286C19.3822 18.2147 20.1601 17.4882 20.1601 16.5976V8.27342C20.1643 7.3789 19.3864 6.64844 18.4286 6.64844ZM18.688 15.0468C18.5499 15.0194 18.3994 14.996 18.253 14.996C17.2827 14.996 16.5006 15.7304 16.5006 16.6366C16.5006 16.703 16.5048 16.7733 16.5173 16.8397H3.67333C3.69424 16.7421 3.70679 16.6405 3.70679 16.539C3.70679 15.6327 2.92051 14.8984 1.9502 14.8984C1.84564 14.8984 1.74527 14.9101 1.64489 14.9257V9.95309C1.74527 9.96481 1.84564 9.97653 1.9502 9.97653C2.92051 9.97653 3.70679 9.24607 3.70679 8.33983C3.70679 8.23826 3.69424 8.1328 3.67333 8.03905H16.5508C16.5173 8.16405 16.4964 8.29686 16.4964 8.43748C16.4964 9.34372 17.2785 10.0742 18.2488 10.0742C18.3952 10.0742 18.5458 10.0547 18.6796 10.0234V15.0468H18.688Z" fill="white"/>
<path d="M7.60055 2.51939L11.327 4.52718C11.5194 4.62874 11.7662 4.49984 11.7662 4.2889V3.19126H14.0665C15.5596 3.19126 16.7683 4.32015 16.7683 5.71467H18.7089C18.7089 3.32407 16.6261 1.37487 14.0623 1.37487H11.762V0.273321C11.762 0.0623853 11.5194 -0.0704259 11.3228 0.038948L7.59637 2.04283C7.40816 2.15221 7.40816 2.41392 7.60055 2.51939Z" fill="white"/>
<path d="M12.7197 22.4804L8.99328 20.4726C8.80089 20.3711 8.55413 20.5 8.55413 20.7109V21.8086H6.25384C4.76074 21.8086 3.55204 20.6797 3.55204 19.2852H1.61143C1.61143 21.6758 3.69424 23.625 6.25802 23.625H8.55831V24.7265C8.55831 24.9374 8.80089 25.0703 8.99746 24.9609L12.7239 22.957C12.9121 22.8476 12.9121 22.5859 12.7197 22.4804Z" fill="white"/>
</svg>
