<svg width="23" height="23" viewBox="0 0 23 23" fill="none" xmlns="http://www.w3.org/2000/svg">
<path d="M11.0208 2.63542C11.0208 3.01875 11.4042 3.35417 11.8833 3.35417C13.8479 3.35417 15.8604 7.475 14.375 8.38542C13.6563 8.81667 13.8 10.0625 14.5188 10.0625C15.2854 10.0625 16.2917 8.09792 16.2917 6.66042C16.2917 6.13333 16.0042 5.12708 15.6208 4.36042C14.5667 2.39583 11.0208 1.05417 11.0208 2.63542Z" fill="white"/>
<path d="M7.42708 4.31235C6.51667 6.03735 6.51667 7.3311 7.37917 9.0561C8.43333 11.0207 11.9792 12.3624 11.9792 10.7811C11.9792 10.3978 11.5958 10.0624 11.1167 10.0624C9.91875 10.0624 8.14583 8.09777 8.14583 6.70818C8.14583 6.08527 8.48125 5.22277 8.9125 4.7436C9.67917 3.92902 9.4875 2.87485 8.625 2.87485C8.38542 2.87485 7.85833 3.49777 7.42708 4.31235Z" fill="white"/>
<path d="M14.9979 11.979C13.6562 12.5061 11.9792 15.1415 11.9792 16.6748C11.9792 17.9686 13.2729 20.604 13.8958 20.604C14.7104 20.604 14.8062 19.7894 14.1354 18.879C12.5542 16.7707 14.2312 12.9373 16.7708 12.9373C17.2979 12.9373 17.7292 12.6019 17.7292 12.2186C17.7292 11.404 16.6271 11.3082 14.9979 11.979Z" fill="white"/>
<path d="M19.1667 12.7457C19.1667 12.8894 19.5979 13.5603 20.125 14.2311C21.85 16.4353 20.8917 19.5019 18.2083 20.3644C17.25 20.6519 16.8667 22.0415 17.7292 22.0415C18.975 22.0415 21.1313 20.4603 21.85 19.0707C22.7604 17.3457 22.4729 14.7103 21.275 13.3686C20.5083 12.5061 19.1667 12.1228 19.1667 12.7457Z" fill="white"/>
<path d="M4.64791 14.2791C3.49791 15.5249 3.64166 16.9624 4.98333 18.5436C6.6125 20.4603 11.0208 21.8499 11.0208 20.4124C11.0208 20.0291 10.3021 19.5978 9.39166 19.4541C7.13958 19.0228 5.175 17.3936 5.36666 16.0999C5.51041 15.2374 5.89375 15.0936 8.28958 14.9499C10.3021 14.8541 11.0208 14.6145 11.0208 14.1353C11.0208 12.9853 5.65416 13.1291 4.64791 14.2791Z" fill="white"/>
<path d="M17.9688 15.8123C17.3458 16.4831 16.9625 16.6269 16.4833 16.2435C15.4771 15.429 15.1417 16.7227 16.1 17.7769C16.9146 18.6873 16.9625 18.6873 18.4958 17.2019C19.3583 16.3394 19.9813 15.4769 19.8375 15.2373C19.4542 14.6144 18.9271 14.7581 17.9688 15.8123Z" fill="white"/>
</svg>
