<svg width="22" height="22" viewBox="0 0 22 22" fill="none" xmlns="http://www.w3.org/2000/svg">
<g clip-path="url(#clip0_505_861)">
<path d="M5.66625 0.722778C5.85228 0.723307 6.03832 0.723835 6.23 0.72438C6.50905 0.723587 6.50905 0.723587 6.79375 0.722778C7.255 0.750005 7.255 0.750005 7.46 0.955005C7.46 1.42855 7.46 1.9021 7.46 2.39C9.8954 2.39 12.3308 2.39 14.84 2.39C14.84 1.91645 14.84 1.4429 14.84 0.955005C15.045 0.750005 15.045 0.750005 15.5062 0.722778C15.6923 0.723307 15.8783 0.723835 16.07 0.72438C16.3491 0.723587 16.3491 0.723587 16.6337 0.722778C17.095 0.750005 17.095 0.750005 17.3 0.955005C17.3084 1.43326 17.3087 1.91175 17.3 2.39C17.6294 2.38644 17.6294 2.38644 17.9654 2.3828C18.2519 2.38088 18.5383 2.37901 18.8247 2.37719C18.9696 2.37547 19.1146 2.37376 19.2639 2.37199C19.6343 2.37021 20.0047 2.3793 20.375 2.39C20.7411 2.75615 20.6059 3.2495 20.6078 3.73706C20.6072 3.98275 20.6072 3.98275 20.6065 4.2334C20.6071 4.49089 20.6071 4.49089 20.6076 4.75357C20.6085 5.32385 20.6079 5.89411 20.6072 6.46438C20.6074 6.85886 20.6076 7.25335 20.6078 7.64783C20.6081 8.47574 20.6077 9.30365 20.6067 10.1316C20.6056 11.1953 20.6062 12.259 20.6075 13.3228C20.6082 14.1377 20.608 14.9526 20.6074 15.7676C20.6073 16.1599 20.6075 16.5523 20.6079 16.9446C20.6085 17.4919 20.6077 18.0393 20.6065 18.5866C20.6069 18.7504 20.6074 18.9142 20.6078 19.083C20.6034 20.2016 20.6034 20.2016 20.375 20.43C19.8021 20.4506 19.2343 20.4579 18.6613 20.4565C18.3918 20.4571 18.3918 20.4571 18.1169 20.4576C17.52 20.4585 16.9231 20.4579 16.3262 20.4572C15.9134 20.4574 15.5005 20.4576 15.0876 20.4578C14.2211 20.4581 13.3546 20.4577 12.4881 20.4567C11.3747 20.4556 10.2613 20.4562 9.14796 20.4575C8.29504 20.4582 7.44213 20.458 6.58922 20.4574C6.17857 20.4573 5.76792 20.4575 5.35727 20.4579C4.7844 20.4585 4.21154 20.4577 3.63867 20.4565C3.46721 20.4569 3.29575 20.4574 3.11909 20.4578C1.94842 20.4534 1.94842 20.4534 1.72 20.225C1.69941 19.6771 1.69208 19.1346 1.69347 18.5866C1.69311 18.415 1.69275 18.2433 1.69238 18.0664C1.69148 17.4962 1.69208 16.9259 1.69277 16.3556C1.69263 15.9611 1.69243 15.5667 1.69218 15.1722C1.69187 14.3443 1.69232 13.5164 1.69327 12.6885C1.69444 11.6247 1.69377 10.561 1.69254 9.49722C1.6918 8.68229 1.69203 7.86737 1.69257 7.05244C1.6927 6.6601 1.69253 6.26776 1.69206 5.87542C1.69154 5.32807 1.69233 4.78075 1.69347 4.2334C1.69306 4.06961 1.69264 3.90581 1.69221 3.73706C1.69657 2.61843 1.69657 2.61843 1.925 2.39C2.44375 2.37501 2.95677 2.37105 3.47531 2.37719C3.62105 2.37812 3.76679 2.37904 3.91694 2.38C4.27797 2.38242 4.63898 2.38609 5 2.39C4.99577 2.15746 4.99154 1.92491 4.98718 1.68532C5.00338 0.761906 5.00338 0.761906 5.66625 0.722778ZM5.82 1.57C5.82 2.3818 5.82 3.1936 5.82 4.03C6.0906 4.03 6.3612 4.03 6.64 4.03C6.64 3.2182 6.64 2.4064 6.64 1.57C6.3694 1.57 6.0988 1.57 5.82 1.57ZM15.66 1.57C15.66 2.3818 15.66 3.1936 15.66 4.03C15.9306 4.03 16.2012 4.03 16.48 4.03C16.48 3.2182 16.48 2.4064 16.48 1.57C16.2094 1.57 15.9388 1.57 15.66 1.57ZM2.54 3.21C2.54 4.1571 2.54 5.1042 2.54 6.08C8.2226 6.08 13.9052 6.08 19.76 6.08C19.76 5.1329 19.76 4.1858 19.76 3.21C18.9482 3.21 18.1364 3.21 17.3 3.21C17.2323 3.68355 17.1647 4.1571 17.095 4.645C16.4185 4.645 15.742 4.645 15.045 4.645C14.9435 3.93468 14.9435 3.93468 14.84 3.21C12.4046 3.21 9.9692 3.21 7.46 3.21C7.39235 3.68355 7.3247 4.1571 7.255 4.645C6.5785 4.645 5.902 4.645 5.205 4.645C5.13735 4.17145 5.0697 3.6979 5 3.21C4.1882 3.21 3.3764 3.21 2.54 3.21ZM2.54 6.9C2.54 11.0943 2.54 15.2886 2.54 19.61C8.2226 19.61 13.9052 19.61 19.76 19.61C19.76 15.4157 19.76 11.2214 19.76 6.9C14.0774 6.9 8.3948 6.9 2.54 6.9Z" fill="white" stroke="white" stroke-width="0.5"/>
<path d="M10.9451 10.18C11.2157 10.18 11.4863 10.18 11.7651 10.18C11.7651 12.0065 11.7651 13.8331 11.7651 15.715C11.4268 15.715 11.0886 15.715 10.7401 15.715C10.7401 14.4973 10.7401 13.2796 10.7401 12.025C10.2665 12.025 9.79295 12.025 9.30505 12.025C9.3727 11.6867 9.44035 11.3485 9.51005 11C9.91595 10.9323 10.3219 10.8647 10.7401 10.795C10.8077 10.592 10.8754 10.3891 10.9451 10.18Z" fill="white" stroke="white" stroke-width="0.5"/>
</g>
<defs>
<clipPath id="clip0_505_861">
<rect width="20.5" height="20.5" fill="white" transform="translate(0.900024 0.75)"/>
</clipPath>
</defs>
</svg>
