<svg width="13" height="13" viewBox="0 0 13 13" fill="none" xmlns="http://www.w3.org/2000/svg">
<path d="M10.0863 0.95762C12.8458 2.83456 13.804 6.58843 12.2709 9.57621C11.1978 11.7213 9.51144 12.7555 6.86692 12.947C4.98894 13.1003 4.37571 12.947 2.95764 12.1426C1.42459 11.2233 -0.415076 8.7335 0.0831661 8.23554C0.198145 8.12063 0.734713 8.19724 1.30961 8.42706C5.14224 9.88265 8.89822 6.93318 8.24667 3.02608C8.09337 2.22168 7.82508 1.45558 7.63345 1.30236C7.02023 0.95762 7.25019 -5.8139e-07 7.97839 -5.8139e-07C8.32332 -5.8139e-07 9.28148 0.421353 10.0863 0.95762Z" fill="#999999"/>
</svg>
