<svg width="15" height="15" viewBox="0 0 15 15" fill="none" xmlns="http://www.w3.org/2000/svg">
<g clip-path="url(#clip0_922_128)">
<path d="M6.5625 1.28906C5.8125 2.0625 5.69531 2.10938 4.64062 1.96875C3.42188 1.80469 3.42188 1.80469 3.16406 3.32812C3.04688 4.07812 2.90625 4.24219 1.99219 4.59375C1.40625 4.80469 0.9375 5.01562 0.9375 5.0625C0.9375 5.08594 1.14844 5.60156 1.40625 6.21094L1.875 7.3125L1.28906 8.32031L0.679688 9.32812L1.6875 9.89062C2.48438 10.3125 2.71875 10.5938 2.76562 11.1328C2.92969 12.9141 2.95312 12.9375 4.19531 12.7734C5.32031 12.6328 5.34375 12.6328 6.09375 13.5703L6.86719 14.5078L7.82812 13.7344C8.78906 12.9609 8.78906 12.9375 9.84375 13.2656C10.4297 13.4531 10.9219 13.5938 10.9453 13.5938C10.9922 13.5938 11.1328 13.125 11.2734 12.5391C11.5781 11.3438 11.7422 11.1797 12.9609 10.8047C13.4297 10.6406 13.8281 10.4766 13.8281 10.4531C13.8281 10.4297 13.6641 9.91406 13.4531 9.30469C13.1016 8.25 13.1016 8.20312 13.6875 7.33594C14.0156 6.84375 14.2969 6.375 14.2969 6.30469C14.2969 6.23438 13.875 5.88281 13.3594 5.53125C12.4688 4.94531 12.4219 4.85156 12.4219 3.75V2.57812H11.0625C9.77344 2.57812 9.65625 2.53125 8.67188 1.52344C8.10938 0.9375 7.57031 0.46875 7.5 0.46875C7.42969 0.46875 7.00781 0.84375 6.5625 1.28906ZM9.09375 3.39844C10.2422 3.89062 10.9922 4.61719 11.5078 5.74219C12.5625 7.99219 11.4844 10.5938 9.09375 11.6016C7.99219 12.0469 7.00781 12.0469 5.90625 11.6016C2.22656 10.0547 2.13281 5.15625 5.74219 3.49219C6.89062 2.95312 7.94531 2.92969 9.09375 3.39844Z" fill="#999999"/>
<circle cx="7.55859" cy="7.55859" r="3.51562" fill="#999999"/>
</g>
<defs>
<clipPath id="clip0_922_128">
<rect width="15" height="15" fill="white"/>
</clipPath>
</defs>
</svg>
